Playfair Display-Bold.ufo
<glyph name="t" format="1">
  <advance width="350"/>
  <unicode hex="0074"/>
  <outline>
    <contour>
      <point x="252" y="681" type="line"/>
      <point x="199" y="650"/>
      <point x="143" y="637"/>
      <point x="72" y="637" type="curve"/>
      <point x="72" y="519" type="line"/>
      <point x="-4" y="519" type="line"/>
      <point x="-4" y="499" type="line"/>
      <point x="72" y="499" type="line"/>
      <point x="72" y="159" type="line" smooth="yes"/>
      <point x="72" y="90"/>
      <point x="77" y="49"/>
      <point x="106" y="20" type="curve" smooth="yes"/>
      <point x="129" y="-3"/>
      <point x="165" y="-14"/>
      <point x="209" y="-14" type="curve" smooth="yes"/>
      <point x="278" y="-14"/>
      <point x="323" y="17"/>
      <point x="351" y="65" type="curve"/>
      <point x="336" y="77" type="line"/>
      <point x="318" y="55"/>
      <point x="296" y="48"/>
      <point x="282" y="48" type="curve" smooth="yes"/>
      <point x="260" y="48"/>
      <point x="252" y="58"/>
      <point x="252" y="84" type="curve" smooth="yes"/>
      <point x="252" y="499" type="line"/>
      <point x="350" y="499" type="line"/>
      <point x="350" y="519" type="line"/>
      <point x="252" y="519" type="line"/>
    </contour>
    <contour>
      <point x="216" y="0" type="move" name="bottom"/>
    </contour>
    <contour>
      <point x="175" y="357" type="move" name="center"/>
    </contour>
    <contour>
      <point x="350" y="519" type="move" name="right"/>
    </contour>
    <contour>
      <point x="169" y="758" type="move" name="top"/>
    </contour>
    <contour>
      <point x="298" y="758" type="move" name="topright"/>
    </contour>
  </outline>
</glyph>
<glyph name="uni018F" format="1">
  <advance width="811"/>
  <unicode hex="018F"/>
  <outline>
    <contour>
      <point x="401" y="-14" type="curve" smooth="yes"/>
      <point x="627" y="-14"/>
      <point x="775" y="131"/>
      <point x="775" y="360" type="curve" smooth="yes"/>
      <point x="775" y="584"/>
      <point x="633" y="723"/>
      <point x="400" y="723" type="curve" smooth="yes"/>
      <point x="260" y="723"/>
      <point x="197" y="673"/>
      <point x="169" y="657" type="curve" smooth="yes"/>
      <point x="139" y="640"/>
      <point x="130" y="651"/>
      <point x="124" y="708" type="curve"/>
      <point x="101" y="708" type="line"/>
      <point x="104" y="658"/>
      <point x="105" y="591"/>
      <point x="105" y="458" type="curve"/>
      <point x="128" y="458" type="line"/>
      <point x="143" y="607"/>
      <point x="213" y="692"/>
      <point x="333" y="692" type="curve" smooth="yes"/>
      <point x="480" y="692"/>
      <point x="568" y="566"/>
      <point x="568" y="321" type="curve" smooth="yes"/>
      <point x="568" y="131"/>
      <point x="515" y="9"/>
      <point x="412" y="9" type="curve" smooth="yes"/>
      <point x="299" y="9"/>
      <point x="226" y="155"/>
      <point x="243" y="347" type="curve"/>
      <point x="624" y="347" type="line"/>
      <point x="622" y="366" type="line"/>
      <point x="36" y="366" type="line"/>
      <point x="33" y="133"/>
      <point x="173" y="-14"/>
    </contour>
    <contour>
      <point x="424" y="0" type="move" name="bottom"/>
    </contour>
    <contour>
      <point x="424" y="708" type="move" name="top"/>
    </contour>
  </outline>
</glyph>
<glyph name="Ohorn" format="1">
  <advance width="827"/>
  <unicode hex="01A0"/>
  <outline>
    <contour>
      <point x="526" y="699" type="curve"/>
      <point x="551" y="678" type="line"/>
      <point x="636" y="676"/>
      <point x="699" y="692"/>
      <point x="732" y="707" type="curve" smooth="yes"/>
      <point x="774" y="726"/>
      <point x="794" y="756"/>
      <point x="794" y="794" type="curve" smooth="yes"/>
      <point x="794" y="846"/>
      <point x="756" y="876"/>
      <point x="714" y="876" type="curve" smooth="yes"/>
      <point x="673" y="876"/>
      <point x="637" y="847"/>
      <point x="637" y="800" type="curve" smooth="yes"/>
      <point x="637" y="756"/>
      <point x="671" y="726"/>
      <point x="705" y="711" type="curve"/>
      <point x="708" y="720" type="line"/>
      <point x="659" y="704"/>
      <point x="606" y="695"/>
    </contour>
    <component base="O"/>
  </outline>
</glyph>
<glyph name="Uhorn" format="1">
  <advance width="693"/>
  <unicode hex="01AF"/>
  <outline>
    <contour>
      <point x="354" y="-14" type="curve" smooth="yes"/>
      <point x="469" y="-14"/>
      <point x="534" y="21"/>
      <point x="569" y="79" type="curve" smooth="yes"/>
      <point x="601" y="132"/>
      <point x="610" y="208"/>
      <point x="610" y="291" type="curve" smooth="yes"/>
      <point x="610" y="690" type="line"/>
      <point x="602" y="685" type="line"/>
      <point x="635" y="687"/>
      <point x="669" y="696"/>
      <point x="703" y="713" type="curve" smooth="yes"/>
      <point x="739" y="731"/>
      <point x="765" y="760"/>
      <point x="765" y="801" type="curve" smooth="yes"/>
      <point x="765" y="851"/>
      <point x="727" y="882"/>
      <point x="685" y="882" type="curve" smooth="yes"/>
      <point x="644" y="882"/>
      <point x="608" y="853"/>
      <point x="608" y="806" type="curve" smooth="yes"/>
      <point x="608" y="762"/>
      <point x="642" y="732"/>
      <point x="676" y="717" type="curve"/>
      <point x="679" y="725" type="line"/>
      <point x="647" y="707"/>
      <point x="614" y="704"/>
      <point x="563" y="704" type="curve" smooth="yes"/>
      <point x="533" y="704"/>
      <point x="520" y="706"/>
      <point x="490" y="708" type="curve"/>
      <point x="485" y="688" type="line"/>
      <point x="518" y="684"/>
      <point x="554" y="684"/>
      <point x="589" y="684" type="curve"/>
      <point x="587" y="690" type="line"/>
      <point x="587" y="280" type="line" smooth="yes"/>
      <point x="587" y="126"/>
      <point x="546" y="21"/>
      <point x="412" y="21" type="curve" smooth="yes"/>
      <point x="329" y="21"/>
      <point x="287" y="62"/>
      <point x="287" y="194" type="curve" smooth="yes"/>
      <point x="287" y="602" type="line" smooth="yes"/>
      <point x="287" y="675"/>
      <point x="300" y="685"/>
      <point x="368" y="688" type="curve"/>
      <point x="368" y="708" type="line"/>
      <point x="327" y="706"/>
      <point x="258" y="705"/>
      <point x="189" y="705" type="curve" smooth="yes"/>
      <point x="120" y="705"/>
      <point x="51" y="706"/>
      <point x="13" y="708" type="curve"/>
      <point x="13" y="688" type="line"/>
      <point x="74" y="685"/>
      <point x="84" y="675"/>
      <point x="84" y="602" type="curve" smooth="yes"/>
      <point x="84" y="288" type="line" smooth="yes"/>
      <point x="84" y="165"/>
      <point x="97" y="84"/>
      <point x="166" y="34" type="curve" smooth="yes"/>
      <point x="219" y="-4"/>
      <point x="293" y="-14"/>
    </contour>
    <contour>
      <point x="396" y="0" type="move" name="bottom"/>
    </contour>
    <contour>
      <point x="467" y="0" type="move" name="ogonek"/>
    </contour>
    <contour>
      <point x="361" y="708" type="move" name="top"/>
    </contour>
  </outline>
</glyph>
<glyph name="uhorn" format="1">
  <advance width="622"/>
  <unicode hex="01B0"/>
  <outline>
    <contour>
      <point x="469" y="498" type="line"/>
      <point x="532" y="501"/>
      <point x="588" y="520"/>
      <point x="624" y="540" type="curve" smooth="yes"/>
      <point x="663" y="562"/>
      <point x="687" y="590"/>
      <point x="687" y="626" type="curve" smooth="yes"/>
      <point x="687" y="672"/>
      <point x="649" y="695"/>
      <point x="609" y="695" type="curve" smooth="yes"/>
      <point x="563" y="695"/>
      <point x="530" y="665"/>
      <point x="530" y="623" type="curve" smooth="yes"/>
      <point x="530" y="583"/>
      <point x="559" y="554"/>
      <point x="588" y="540" type="curve"/>
      <point x="591" y="549" type="line"/>
      <point x="559" y="531"/>
      <point x="522" y="521"/>
      <point x="464" y="518" type="curve"/>
    </contour>
    <component base="u"/>
  </outline>
</glyph>
<glyph name="uni01B7" format="1">
  <advance width="607"/>
  <unicode hex="01B7"/>
  <outline>
    <contour>
      <point x="561" y="708" type="line"/>
      <point x="464" y="705"/>
      <point x="348" y="705"/>
      <point x="248" y="705" type="curve" smooth="yes"/>
      <point x="187" y="705"/>
      <point x="101" y="705"/>
      <point x="39" y="708" type="curve"/>
      <point x="44" y="641"/>
      <point x="46" y="574"/>
      <point x="46" y="538" type="curve" smooth="yes"/>
      <point x="46" y="513"/>
      <point x="45" y="485"/>
      <point x="43" y="468" type="curve"/>
      <point x="66" y="468" type="line"/>
      <point x="89" y="638"/>
      <point x="208" y="685"/>
      <point x="290" y="685" type="curve" smooth="yes"/>
      <point x="340" y="685" type="line"/>
      <point x="210" y="400" type="line"/>
      <point x="210" y="380" type="line"/>
      <point x="325" y="361"/>
      <point x="391" y="299"/>
      <point x="391" y="192" type="curve" smooth="yes"/>
      <point x="391" y="106"/>
      <point x="348" y="16"/>
      <point x="242" y="16" type="curve" smooth="yes"/>
      <point x="118" y="16"/>
      <point x="63" y="141"/>
      <point x="56" y="283" type="curve"/>
      <point x="33" y="283" type="line"/>
      <point x="33" y="112"/>
      <point x="32" y="44"/>
      <point x="29" y="-7" type="curve"/>
      <point x="52" y="-7" type="line"/>
      <point x="56" y="22"/>
      <point x="61" y="37"/>
      <point x="75" y="37" type="curve" smooth="yes"/>
      <point x="85" y="37"/>
      <point x="100" y="28"/>
      <point x="108" y="23" type="curve" smooth="yes"/>
      <point x="142" y="3"/>
      <point x="201" y="-14"/>
      <point x="279" y="-14" type="curve" smooth="yes"/>
      <point x="470" y="-14"/>
      <point x="576" y="88"/>
      <point x="576" y="200" type="curve" smooth="yes"/>
      <point x="576" y="295"/>
      <point x="500" y="355"/>
      <point x="373" y="398" type="curve"/>
      <point x="404" y="341" type="line"/>
      <point x="561" y="688" type="line"/>
    </contour>
    <contour>
      <point x="304" y="0" type="move" name="bottom"/>
    </contour>
    <contour>
      <point x="306" y="708" type="move" name="top"/>
    </contour>
  </outline>
</glyph>
<glyph name="uni01E4" format="1">
  <advance width="756"/>
  <unicode hex="01E4"/>
  <outline>
    <contour>
      <point x="424" y="722" type="curve" smooth="yes"/>
      <point x="196" y="722"/>
      <point x="36" y="572"/>
      <point x="36" y="348" type="curve" smooth="yes"/>
      <point x="36" y="120"/>
      <point x="161" y="-14"/>
      <point x="412" y="-14" type="curve" smooth="yes"/>
      <point x="469" y="-14"/>
      <point x="529" y="9"/>
      <point x="581" y="34" type="curve" smooth="yes"/>
      <point x="622" y="54"/>
      <point x="638" y="57"/>
      <point x="649" y="57" type="curve" smooth="yes"/>
      <point x="670" y="57"/>
      <point x="679" y="23"/>
      <point x="680" y="0" type="curve"/>
      <point x="700" y="0" type="line"/>
      <point x="700" y="228" type="line" smooth="yes"/>
      <point x="700" y="302"/>
      <point x="707" y="311"/>
      <point x="741" y="314" type="curve"/>
      <point x="741" y="334" type="line"/>
      <point x="707" y="332"/>
      <point x="651" y="331"/>
      <point x="587" y="331" type="curve" smooth="yes"/>
      <point x="527" y="331"/>
      <point x="441" y="332"/>
      <point x="396" y="334" type="curve"/>
      <point x="396" y="314" type="line"/>
      <point x="480" y="311"/>
      <point x="497" y="295"/>
      <point x="497" y="198" type="curve" smooth="yes"/>
      <point x="497" y="68" type="line" smooth="yes"/>
      <point x="497" y="44"/>
      <point x="490" y="28"/>
      <point x="476" y="18" type="curve" smooth="yes"/>
      <point x="464" y="10"/>
      <point x="448" y="6"/>
      <point x="427" y="6" type="curve" smooth="yes"/>
      <point x="330" y="6"/>
      <point x="266" y="112"/>
      <point x="266" y="352" type="curve" smooth="yes"/>
      <point x="266" y="502"/>
      <point x="310" y="691"/>
      <point x="464" y="691" type="curve" smooth="yes"/>
      <point x="499" y="691"/>
      <point x="539" y="680"/>
      <point x="567" y="661" type="curve" smooth="yes"/>
      <point x="633" y="616"/>
      <point x="650" y="554"/>
      <point x="659" y="458" type="curve"/>
      <point x="682" y="458" type="line"/>
      <point x="682" y="584"/>
      <point x="683" y="655"/>
      <point x="686" y="708" type="curve"/>
      <point x="663" y="708" type="line"/>
      <point x="659" y="667"/>
      <point x="652" y="648"/>
      <point x="638" y="648" type="curve" smooth="yes"/>
      <point x="632" y="648"/>
      <point x="625" y="651"/>
      <point x="618" y="657" type="curve" smooth="yes"/>
      <point x="573" y="693"/>
      <point x="517" y="722"/>
    </contour>
    <contour>
      <point x="391" y="178" type="line"/>
      <point x="756" y="178" type="line"/>
      <point x="756" y="198" type="line"/>
      <point x="391" y="198" type="line"/>
    </contour>
    <contour>
      <point x="419" y="0" type="move" name="bottom"/>
    </contour>
    <contour>
      <point x="403" y="708" type="move" name="top"/>
    </contour>
  </outline>
</glyph>
<glyph name="uni0237" format="1">
  <advance width="317"/>
  <unicode hex="0237"/>
  <outline>
    <contour>
      <point x="-21" y="-188" type="line"/>
      <point x="90" y="-188"/>
      <point x="149" y="-167"/>
      <point x="183" y="-138" type="curve" smooth="yes"/>
      <point x="235" y="-93"/>
      <point x="254" y="-38"/>
      <point x="254" y="80" type="curve" smooth="yes"/>
      <point x="254" y="530" type="line"/>
      <point x="204" y="520"/>
      <point x="147" y="516"/>
      <point x="80" y="516" type="curve" smooth="yes"/>
      <point x="60" y="516"/>
      <point x="39" y="517"/>
      <point x="18" y="519" type="curve"/>
      <point x="18" y="498" type="line"/>
      <point x="60" y="498"/>
      <point x="74" y="470"/>
      <point x="74" y="410" type="curve" smooth="yes"/>
      <point x="74" y="-42" type="line" smooth="yes"/>
      <point x="74" y="-134"/>
      <point x="32" y="-168"/>
      <point x="-21" y="-168" type="curve"/>
    </contour>
    <contour>
      <point x="56" y="-181" type="move" name="bottom"/>
    </contour>
    <contour>
      <point x="153" y="519" type="move" name="top"/>
    </contour>
  </outline>
</glyph>
<glyph name="uni0307" format="1">
  <advance width="198"/>
  <unicode hex="0307"/>
  <outline>
    <contour>
      <point x="99" y="782" type="curve" smooth="yes"/>
      <point x="29" y="782"/>
      <point x="-10" y="753"/>
      <point x="-10" y="696" type="curve" smooth="yes"/>
      <point x="-10" y="639"/>
      <point x="29" y="610"/>
      <point x="99" y="610" type="curve" smooth="yes"/>
      <point x="168" y="610"/>
      <point x="208" y="639"/>
      <point x="208" y="696" type="curve" smooth="yes"/>
      <point x="208" y="753"/>
      <point x="168" y="782"/>
    </contour>
    <contour>
      <point x="99" y="519" type="move" name="_top"/>
    </contour>
    <contour>
      <point x="98" y="758" type="move" name="top"/>
    </contour>
  </outline>
</glyph>
<glyph name="uni0308" format="1">
  <advance width="390"/>
  <unicode hex="0308"/>
  <outline>
    <contour>
      <point x="314" y="772" type="curve" smooth="yes"/>
      <point x="266" y="772"/>
      <point x="227" y="731"/>
      <point x="227" y="685" type="curve" smooth="yes"/>
      <point x="227" y="637"/>
      <point x="266" y="598"/>
      <point x="314" y="598" type="curve" smooth="yes"/>
      <point x="360" y="598"/>
      <point x="401" y="637"/>
      <point x="401" y="685" type="curve" smooth="yes"/>
      <point x="401" y="731"/>
      <point x="360" y="772"/>
    </contour>
    <contour>
      <point x="76" y="772" type="curve" smooth="yes"/>
      <point x="28" y="772"/>
      <point x="-11" y="731"/>
      <point x="-11" y="685" type="curve" smooth="yes"/>
      <point x="-11" y="637"/>
      <point x="28" y="598"/>
      <point x="76" y="598" type="curve" smooth="yes"/>
      <point x="122" y="598"/>
      <point x="163" y="637"/>
      <point x="163" y="685" type="curve" smooth="yes"/>
      <point x="163" y="731"/>
      <point x="122" y="772"/>
    </contour>
    <contour>
      <point x="194" y="519" type="move" name="_top"/>
    </contour>
    <contour>
      <point x="194" y="758" type="move" name="top"/>
    </contour>
  </outline>
</glyph>
<glyph name="hookabovecomb" format="1">
  <advance width="364"/>
  <unicode hex="0309"/>
  <outline>
    <contour>
      <point x="144" y="600" type="line"/>
      <point x="164" y="600" type="line"/>
      <point x="164" y="646" type="line"/>
      <point x="257" y="662"/>
      <point x="329" y="695"/>
      <point x="329" y="752" type="curve" smooth="yes"/>
      <point x="329" y="804"/>
      <point x="269" y="838"/>
      <point x="179" y="838" type="curve" smooth="yes"/>
      <point x="138" y="838"/>
      <point x="103" y="831"/>
      <point x="76" y="815" type="curve" smooth="yes"/>
      <point x="56" y="803"/>
      <point x="35" y="782"/>
      <point x="35" y="749" type="curve" smooth="yes"/>
      <point x="35" y="715"/>
      <point x="58" y="691"/>
      <point x="94" y="691" type="curve" smooth="yes"/>
      <point x="128" y="691"/>
      <point x="155" y="713"/>
      <point x="155" y="748" type="curve" smooth="yes"/>
      <point x="155" y="779"/>
      <point x="134" y="798"/>
      <point x="100" y="809" type="curve"/>
      <point x="106" y="813"/>
      <point x="127" y="818"/>
      <point x="147" y="818" type="curve" smooth="yes"/>
      <point x="188" y="818"/>
      <point x="220" y="796"/>
      <point x="220" y="747" type="curve" smooth="yes"/>
      <point x="220" y="707"/>
      <point x="198" y="680"/>
      <point x="144" y="655" type="curve"/>
    </contour>
    <contour>
      <point x="121" y="519" type="move" name="_right"/>
    </contour>
    <contour>
      <point x="154" y="519" type="move" name="_top"/>
    </contour>
    <contour>
      <point x="182" y="838" type="move" name="top"/>
    </contour>
  </outline>
</glyph>
<glyph name="uni0335" format="1">
  <advance width="444"/>
  <unicode hex="0335"/>
  <outline>
    <contour>
      <point x="424" y="628" type="line"/>
      <point x="20" y="628" type="line"/>
      <point x="20" y="608" type="line"/>
      <point x="424" y="608" type="line"/>
    </contour>
    <contour>
      <point x="222" y="618" type="move" name="_center"/>
    </contour>
  </outline>
</glyph>
<glyph name="uni0337" format="1">
  <advance width="576"/>
  <unicode hex="0337"/>
  <outline>
    <contour>
      <point x="392" y="466" type="line"/>
      <point x="178" y="84" type="line"/>
      <point x="194" y="63" type="line"/>
      <point x="407" y="446" type="line"/>
    </contour>
    <contour>
      <point x="151" y="73" type="line"/>
      <point x="59" y="-60" type="line"/>
      <point x="78" y="-73" type="line"/>
      <point x="166" y="53" type="line"/>
    </contour>
    <contour>
      <point x="502" y="592" type="line"/>
      <point x="414" y="466" type="line"/>
      <point x="429" y="446" type="line"/>
      <point x="521" y="579" type="line"/>
    </contour>
    <contour>
      <point x="290" y="260" type="move" name="_center"/>
    </contour>
  </outline>
</glyph>
<glyph name="uni041D" format="1">
  <advance width="829"/>
  <unicode hex="041D"/>
  <outline>
    <component base="H"/>
    <contour>
      <point x="801" y="0" type="move" name="bottomright"/>
    </contour>
  </outline>
</glyph>
<glyph name="uni0462" format="1">
  <advance width="680"/>
  <unicode hex="0462"/>
  <outline>
    <contour>
      <point x="0" y="541" type="line"/>
      <point x="435" y="541" type="line"/>
      <point x="435" y="561" type="line"/>
      <point x="0" y="561" type="line"/>
    </contour>
    <component base="uni042C"/>
  </outline>
</glyph>
<glyph name="uni046A" format="1">
  <advance width="1059"/>
  <unicode hex="046A"/>
  <outline>
    <contour>
      <point x="469" y="249" type="line"/>
      <point x="556" y="249" type="line"/>
      <point x="736" y="556" type="line" smooth="yes"/>
      <point x="782" y="635"/>
      <point x="812" y="671"/>
      <point x="872" y="689" type="curve"/>
      <point x="872" y="709" type="line"/>
      <point x="754" y="706"/>
      <point x="632" y="705"/>
      <point x="555" y="705" type="curve" smooth="yes"/>
      <point x="424" y="705"/>
      <point x="295" y="706"/>
      <point x="147" y="709" type="curve"/>
      <point x="147" y="688" type="line"/>
      <point x="191" y="688"/>
      <point x="210" y="673"/>
      <point x="235" y="632" type="curve" smooth="yes"/>
    </contour>
    <contour>
      <point x="134" y="-14" type="curve" smooth="yes"/>
      <point x="223" y="-14"/>
      <point x="276" y="13"/>
      <point x="288" y="94" type="curve" smooth="yes"/>
      <point x="314" y="266" type="line" smooth="yes"/>
      <point x="327" y="343"/>
      <point x="358" y="363"/>
      <point x="449" y="363" type="curve" smooth="yes"/>
      <point x="458" y="363" type="line"/>
      <point x="458" y="379" type="line"/>
      <point x="425" y="379" type="line" smooth="yes"/>
      <point x="229" y="379"/>
      <point x="125" y="351"/>
      <point x="102" y="244" type="curve" smooth="yes"/>
      <point x="73" y="105" type="line" smooth="yes"/>
      <point x="64" y="55"/>
      <point x="51" y="40"/>
      <point x="27" y="40" type="curve" smooth="yes"/>
      <point x="15" y="40"/>
      <point x="6" y="44"/>
      <point x="-3" y="53" type="curve"/>
      <point x="-16" y="40" type="line"/>
      <point x="25" y="-1"/>
      <point x="73" y="-14"/>
    </contour>
    <contour>
      <point x="357" y="0" type="line"/>
      <point x="396" y="2"/>
      <point x="462" y="3"/>
      <point x="524" y="3" type="curve" smooth="yes"/>
      <point x="596" y="3"/>
      <point x="664" y="2"/>
      <point x="702" y="0" type="curve"/>
      <point x="702" y="20" type="line"/>
      <point x="641" y="23"/>
      <point x="631" y="33"/>
      <point x="631" y="106" type="curve" smooth="yes"/>
      <point x="631" y="372" type="line"/>
      <point x="428" y="372" type="line"/>
      <point x="428" y="106" type="line" smooth="yes"/>
      <point x="428" y="33"/>
      <point x="417" y="23"/>
      <point x="357" y="20" type="curve"/>
    </contour>
    <contour>
      <point x="925" y="-14" type="curve" smooth="yes"/>
      <point x="986" y="-14"/>
      <point x="1034" y="-1"/>
      <point x="1075" y="40" type="curve"/>
      <point x="1062" y="53" type="line"/>
      <point x="1053" y="44"/>
      <point x="1044" y="40"/>
      <point x="1032" y="40" type="curve" smooth="yes"/>
      <point x="1008" y="40"/>
      <point x="995" y="55"/>
      <point x="986" y="105" type="curve" smooth="yes"/>
      <point x="957" y="244" type="line" smooth="yes"/>
      <point x="934" y="351"/>
      <point x="830" y="379"/>
      <point x="634" y="379" type="curve" smooth="yes"/>
      <point x="601" y="379" type="line"/>
      <point x="601" y="363" type="line"/>
      <point x="610" y="363" type="line" smooth="yes"/>
      <point x="701" y="363"/>
      <point x="732" y="343"/>
      <point x="745" y="266" type="curve" smooth="yes"/>
      <point x="771" y="94" type="line" smooth="yes"/>
      <point x="783" y="13"/>
      <point x="836" y="-14"/>
    </contour>
    <contour>
      <point x="624" y="379" type="line"/>
      <point x="476" y="622" type="line" smooth="yes"/>
      <point x="444" y="675"/>
      <point x="477" y="688"/>
      <point x="570" y="688" type="curve" smooth="yes"/>
      <point x="731" y="688"/>
      <point x="751" y="626"/>
      <point x="656" y="466" type="curve" smooth="yes"/>
      <point x="580" y="338" type="line"/>
    </contour>
  </outline>
</glyph>
<glyph name="uni0493" format="1">
  <advance width="468"/>
  <unicode hex="0493"/>
  <outline>
    <contour>
      <point x="0" y="257" type="line"/>
      <point x="345" y="257" type="line"/>
      <point x="345" y="277" type="line"/>
      <point x="0" y="277" type="line"/>
    </contour>
    <component base="uni0433"/>
  </outline>
</glyph>
<glyph name="uni0496" format="1">
  <advance width="1059"/>
  <unicode hex="0496"/>
  <outline>
    <contour>
      <point x="1062" y="708" type="line"/>
      <point x="1035" y="706"/>
      <point x="1004" y="705"/>
      <point x="961" y="705" type="curve" smooth="yes"/>
      <point x="886" y="705"/>
      <point x="848" y="706"/>
      <point x="792" y="708" type="curve"/>
      <point x="792" y="689" type="line"/>
      <point x="867" y="686"/>
      <point x="913" y="626"/>
      <point x="830" y="533" type="curve" smooth="yes"/>
      <point x="796" y="495" type="line" smooth="yes"/>
      <point x="722" y="412"/>
      <point x="683" y="381"/>
      <point x="625" y="379" type="curve"/>
      <point x="625" y="363" type="line"/>
      <point x="709" y="363" type="line"/>
      <point x="898" y="579" type="line" smooth="yes"/>
      <point x="961" y="650"/>
      <point x="1017" y="677"/>
      <point x="1062" y="689" type="curve"/>
    </contour>
    <contour>
      <point x="702" y="708" type="line"/>
      <point x="664" y="706"/>
      <point x="596" y="705"/>
      <point x="524" y="705" type="curve" smooth="yes"/>
      <point x="462" y="705"/>
      <point x="396" y="706"/>
      <point x="357" y="708" type="curve"/>
      <point x="357" y="688" type="line"/>
      <point x="418" y="685"/>
      <point x="428" y="675"/>
      <point x="428" y="602" type="curve" smooth="yes"/>
      <point x="428" y="106" type="line" smooth="yes"/>
      <point x="428" y="33"/>
      <point x="417" y="23"/>
      <point x="357" y="20" type="curve"/>
      <point x="357" y="0" type="line"/>
      <point x="396" y="2"/>
      <point x="462" y="3"/>
      <point x="524" y="3" type="curve" smooth="yes"/>
      <point x="596" y="3"/>
      <point x="664" y="2"/>
      <point x="702" y="0" type="curve"/>
      <point x="702" y="20" type="line"/>
      <point x="641" y="23"/>
      <point x="631" y="33"/>
      <point x="631" y="106" type="curve" smooth="yes"/>
      <point x="631" y="602" type="line" smooth="yes"/>
      <point x="631" y="675"/>
      <point x="642" y="685"/>
      <point x="702" y="688" type="curve"/>
    </contour>
    <contour>
      <point x="267" y="708" type="line"/>
      <point x="211" y="706"/>
      <point x="173" y="705"/>
      <point x="98" y="705" type="curve" smooth="yes"/>
      <point x="55" y="705"/>
      <point x="24" y="706"/>
      <point x="-3" y="708" type="curve"/>
      <point x="-3" y="689" type="line"/>
      <point x="42" y="677"/>
      <point x="98" y="650"/>
      <point x="161" y="579" type="curve" smooth="yes"/>
      <point x="350" y="363" type="line"/>
      <point x="434" y="363" type="line"/>
      <point x="434" y="379" type="line"/>
      <point x="376" y="381"/>
      <point x="337" y="412"/>
      <point x="263" y="495" type="curve" smooth="yes"/>
      <point x="229" y="533" type="line" smooth="yes"/>
      <point x="146" y="626"/>
      <point x="192" y="686"/>
      <point x="267" y="689" type="curve"/>
    </contour>
    <contour>
      <point x="458" y="379" type="line"/>
      <point x="425" y="379" type="line" smooth="yes"/>
      <point x="229" y="379"/>
      <point x="125" y="351"/>
      <point x="102" y="244" type="curve" smooth="yes"/>
      <point x="73" y="105" type="line" smooth="yes"/>
      <point x="64" y="55"/>
      <point x="51" y="40"/>
      <point x="27" y="40" type="curve" smooth="yes"/>
      <point x="15" y="40"/>
      <point x="6" y="44"/>
      <point x="-3" y="53" type="curve"/>
      <point x="-16" y="40" type="line"/>
      <point x="25" y="-1"/>
      <point x="73" y="-14"/>
      <point x="134" y="-14" type="curve" smooth="yes"/>
      <point x="223" y="-14"/>
      <point x="276" y="13"/>
      <point x="288" y="94" type="curve" smooth="yes"/>
      <point x="314" y="266" type="line" smooth="yes"/>
      <point x="327" y="343"/>
      <point x="358" y="363"/>
      <point x="449" y="363" type="curve" smooth="yes"/>
      <point x="458" y="363" type="line"/>
    </contour>
    <contour>
      <point x="1056" y="-185" type="curve"/>
      <point x="1079" y="-185" type="line"/>
      <point x="1077" y="-168"/>
      <point x="1076" y="-146"/>
      <point x="1076" y="-118" type="curve" smooth="yes"/>
      <point x="1076" y="-91"/>
      <point x="1078" y="-35"/>
      <point x="1083" y="20" type="curve"/>
      <point x="1073" y="20" type="line" smooth="yes"/>
      <point x="1014" y="20"/>
      <point x="1000" y="36"/>
      <point x="986" y="105" type="curve" smooth="yes"/>
      <point x="957" y="244" type="line" smooth="yes"/>
      <point x="935" y="351"/>
      <point x="830" y="379"/>
      <point x="634" y="379" type="curve" smooth="yes"/>
      <point x="601" y="379" type="line"/>
      <point x="601" y="363" type="line"/>
      <point x="610" y="363" type="line" smooth="yes"/>
      <point x="701" y="363"/>
      <point x="733" y="343"/>
      <point x="745" y="266" type="curve" smooth="yes"/>
      <point x="769" y="96" type="line" smooth="yes"/>
      <point x="780" y="27"/>
      <point x="835" y="10"/>
      <point x="905" y="-5" type="curve" smooth="yes"/>
      <point x="1006" y="-24"/>
      <point x="1038" y="-74"/>
    </contour>
    <contour>
      <point x="530" y="708" type="move" name="top"/>
    </contour>
  </outline>
</glyph>
<glyph name="uni049B" format="1">
  <advance width="642"/>
  <unicode hex="049B"/>
  <outline>
    <contour>
      <point x="313" y="518" type="line"/>
      <point x="286" y="517"/>
      <point x="226" y="514"/>
      <point x="172" y="514" type="curve" smooth="yes"/>
      <point x="118" y="514"/>
      <point x="50" y="517"/>
      <point x="21" y="518" type="curve"/>
      <point x="21" y="497" type="line"/>
      <point x="62" y="497"/>
      <point x="77" y="481"/>
      <point x="77" y="425" type="curve" smooth="yes"/>
      <point x="77" y="93" type="line" smooth="yes"/>
      <point x="77" y="37"/>
      <point x="62" y="21"/>
      <point x="21" y="21" type="curve"/>
      <point x="21" y="0" type="line"/>
      <point x="48" y="1"/>
      <point x="110" y="4"/>
      <point x="164" y="4" type="curve" smooth="yes"/>
      <point x="218" y="4"/>
      <point x="284" y="1"/>
      <point x="313" y="0" type="curve"/>
      <point x="313" y="21" type="line"/>
      <point x="272" y="21"/>
      <point x="257" y="37"/>
      <point x="257" y="93" type="curve" smooth="yes"/>
      <point x="257" y="425" type="line" smooth="yes"/>
      <point x="257" y="481"/>
      <point x="272" y="497"/>
      <point x="313" y="497" type="curve"/>
    </contour>
    <contour>
      <point x="618" y="-185" type="curve"/>
      <point x="641" y="-185" type="line"/>
      <point x="639" y="-168"/>
      <point x="638" y="-146"/>
      <point x="638" y="-118" type="curve" smooth="yes"/>
      <point x="638" y="-91"/>
      <point x="640" y="-35"/>
      <point x="645" y="20" type="curve"/>
      <point x="613" y="20"/>
      <point x="601" y="32"/>
      <point x="583" y="76" type="curve" smooth="yes"/>
      <point x="556" y="143"/>
      <point x="550" y="193"/>
      <point x="519" y="229" type="curve" smooth="yes"/>
      <point x="467" y="289"/>
      <point x="374" y="286"/>
      <point x="303" y="275" type="curve"/>
      <point x="302" y="268" type="line"/>
      <point x="354" y="283"/>
      <point x="369" y="309"/>
      <point x="386" y="375" type="curve" smooth="yes"/>
      <point x="409" y="466"/>
      <point x="412" y="508"/>
      <point x="481" y="512" type="curve"/>
      <point x="439" y="490"/>
      <point x="423" y="456"/>
      <point x="423" y="425" type="curve" smooth="yes"/>
      <point x="423" y="366"/>
      <point x="480" y="345"/>
      <point x="520" y="345" type="curve" smooth="yes"/>
      <point x="571" y="345"/>
      <point x="609" y="378"/>
      <point x="609" y="437" type="curve" smooth="yes"/>
      <point x="609" y="493"/>
      <point x="575" y="533"/>
      <point x="494" y="533" type="curve" smooth="yes"/>
      <point x="407" y="533"/>
      <point x="394" y="486"/>
      <point x="370" y="392" type="curve" smooth="yes"/>
      <point x="348" y="307"/>
      <point x="337" y="280"/>
      <point x="253" y="274" type="curve"/>
      <point x="253" y="256" type="line"/>
      <point x="289" y="260"/>
      <point x="315" y="255"/>
      <point x="339" y="229" type="curve" smooth="yes"/>
      <point x="372" y="193"/>
      <point x="384" y="130"/>
      <point x="392" y="99" type="curve" smooth="yes"/>
      <point x="410" y="35"/>
      <point x="443" y="18"/>
      <point x="511" y="-3" type="curve" smooth="yes"/>
      <point x="566" y="-20"/>
      <point x="604" y="-47"/>
    </contour>
    <contour>
      <point x="321" y="514" type="move" name="top"/>
    </contour>
  </outline>
</glyph>
<glyph name="uni04AF" format="1">
  <advance width="520"/>
  <unicode hex="04AF"/>
  <outline>
    <contour>
      <point x="375" y="212" type="line"/>
      <point x="323" y="68" type="line"/>
      <point x="172" y="130" type="line"/>
      <point x="172" y="-75" type="line" smooth="yes"/>
      <point x="172" y="-148"/>
      <point x="162" y="-158"/>
      <point x="101" y="-161" type="curve"/>
      <point x="101" y="-181" type="line"/>
      <point x="137" y="-179"/>
      <point x="206" y="-178"/>
      <point x="274" y="-178" type="curve" smooth="yes"/>
      <point x="336" y="-178"/>
      <point x="407" y="-179"/>
      <point x="446" y="-181" type="curve"/>
      <point x="446" y="-161" type="line"/>
      <point x="386" y="-158"/>
      <point x="375" y="-148"/>
      <point x="375" y="-75" type="curve" smooth="yes"/>
    </contour>
    <component base="v"/>
  </outline>
</glyph>
<glyph name="uni04C9" format="1">
  <advance width="829"/>
  <unicode hex="04C9"/>
  <outline>
    <contour>
      <point x="665" y="-183" type="curve"/>
      <point x="687" y="-194" type="line"/>
      <point x="714" y="-143"/>
      <point x="769" y="-57"/>
      <point x="815" y="0" type="curve"/>
      <point x="815" y="20" type="line"/>
      <point x="801" y="20" type="line" smooth="yes"/>
      <point x="741" y="20"/>
      <point x="730" y="33"/>
      <point x="730" y="106" type="curve"/>
      <point x="570" y="3" type="line"/>
      <point x="679" y="3"/>
      <point x="742" y="-25"/>
    </contour>
    <component base="uni041D"/>
  </outline>
</glyph>
<glyph name="uni04CA" format="1">
  <advance width="655"/>
  <unicode hex="04CA"/>
  <outline>
    <contour>
      <point x="513" y="-183" type="curve"/>
      <point x="535" y="-194" type="line"/>
      <point x="562" y="-143"/>
      <point x="617" y="-56"/>
      <point x="663" y="1" type="curve"/>
      <point x="663" y="21" type="line"/>
      <point x="649" y="21" type="line" smooth="yes"/>
      <point x="589" y="21"/>
      <point x="578" y="33"/>
      <point x="578" y="106" type="curve"/>
      <point x="418" y="3" type="line"/>
      <point x="527" y="3"/>
      <point x="590" y="-25"/>
    </contour>
    <component base="uni043D"/>
  </outline>
</glyph>
<glyph name="uni04E9" format="1">
  <advance width="576"/>
  <unicode hex="04E9"/>
  <outline>
    <contour>
      <point x="456" y="277" type="line"/>
      <point x="124" y="277" type="line"/>
      <point x="124" y="257" type="line"/>
      <point x="456" y="257" type="line"/>
    </contour>
    <component base="o"/>
  </outline>
</glyph>
<glyph name="c_t" format="1">
  <advance width="844"/>
  <outline>
    <contour>
      <point x="746" y="681" type="line"/>
      <point x="693" y="650"/>
      <point x="637" y="637"/>
      <point x="566" y="637" type="curve"/>
      <point x="566" y="518" type="line"/>
      <point x="490" y="518" type="line"/>
      <point x="490" y="498" type="line"/>
      <point x="566" y="498" type="line"/>
      <point x="566" y="159" type="line" smooth="yes"/>
      <point x="566" y="90"/>
      <point x="571" y="49"/>
      <point x="600" y="20" type="curve" smooth="yes"/>
      <point x="623" y="-3"/>
      <point x="659" y="-14"/>
      <point x="703" y="-14" type="curve" smooth="yes"/>
      <point x="772" y="-14"/>
      <point x="817" y="17"/>
      <point x="845" y="65" type="curve"/>
      <point x="830" y="77" type="line"/>
      <point x="812" y="55"/>
      <point x="790" y="48"/>
      <point x="776" y="48" type="curve" smooth="yes"/>
      <point x="754" y="48"/>
      <point x="746" y="58"/>
      <point x="746" y="84" type="curve" smooth="yes"/>
      <point x="746" y="498" type="line"/>
      <point x="844" y="498" type="line"/>
      <point x="844" y="518" type="line"/>
      <point x="746" y="518" type="line"/>
    </contour>
    <contour>
      <point x="288" y="533" type="curve" smooth="yes"/>
      <point x="143" y="533"/>
      <point x="31" y="451"/>
      <point x="31" y="259" type="curve" smooth="yes"/>
      <point x="31" y="57"/>
      <point x="138" y="-14"/>
      <point x="272" y="-14" type="curve" smooth="yes"/>
      <point x="391" y="-14"/>
      <point x="456" y="75"/>
      <point x="481" y="156" type="curve"/>
      <point x="464" y="162" type="line"/>
      <point x="420" y="101"/>
      <point x="370" y="95"/>
      <point x="343" y="95" type="curve" smooth="yes"/>
      <point x="284" y="95"/>
      <point x="218" y="132"/>
      <point x="218" y="273" type="curve" smooth="yes"/>
      <point x="218" y="373"/>
      <point x="239" y="504"/>
      <point x="334" y="504" type="curve" smooth="yes"/>
      <point x="352" y="504"/>
      <point x="365" y="499"/>
      <point x="374" y="492" type="curve"/>
      <point x="330" y="480"/>
      <point x="292" y="442"/>
      <point x="292" y="392" type="curve" smooth="yes"/>
      <point x="292" y="339"/>
      <point x="325" y="302"/>
      <point x="384" y="302" type="curve" smooth="yes"/>
      <point x="440" y="302"/>
      <point x="480" y="344"/>
      <point x="480" y="399" type="curve" smooth="yes"/>
      <point x="480" y="437"/>
      <point x="465" y="471"/>
      <point x="437" y="491" type="curve"/>
      <point x="428" y="492" type="line"/>
      <point x="386" y="521"/>
      <point x="346" y="533"/>
    </contour>
    <contour>
      <point x="472" y="782" type="curve" smooth="yes"/>
      <point x="407" y="782"/>
      <point x="348" y="742"/>
      <point x="348" y="653" type="curve" smooth="yes"/>
      <point x="348" y="565"/>
      <point x="414" y="520"/>
      <point x="456" y="448" type="curve"/>
      <point x="466" y="455" type="line"/>
      <point x="428" y="534"/>
      <point x="371" y="571"/>
      <point x="371" y="654" type="curve" smooth="yes"/>
      <point x="371" y="734"/>
      <point x="418" y="764"/>
      <point x="470" y="764" type="curve" smooth="yes"/>
      <point x="532" y="764"/>
      <point x="566" y="715"/>
      <point x="566" y="631" type="curve"/>
      <point x="583" y="634" type="line"/>
      <point x="583" y="741"/>
      <point x="533" y="782"/>
    </contour>
    <contour>
      <point x="423" y="0" type="move" name="bottom"/>
    </contour>
    <contour>
      <point x="423" y="514" type="move" name="top"/>
    </contour>
  </outline>
</glyph>
<glyph name="f_b.liga" format="1">
  <advance width="960"/>
  <outline>
    <contour>
      <point x="603" y="784" type="line"/>
      <point x="568" y="781"/>
      <point x="524" y="777"/>
      <point x="493" y="777" type="curve" smooth="yes"/>
      <point x="439" y="777"/>
      <point x="393" y="782"/>
      <point x="349" y="782" type="curve" smooth="yes"/>
      <point x="286" y="782"/>
      <point x="216" y="766"/>
      <point x="164" y="722" type="curve" smooth="yes"/>
      <point x="116" y="681"/>
      <point x="86" y="619"/>
      <point x="86" y="518" type="curve"/>
      <point x="16" y="518" type="line"/>
      <point x="16" y="498" type="line"/>
      <point x="86" y="498" type="line"/>
      <point x="86" y="93" type="line" smooth="yes"/>
      <point x="86" y="37"/>
      <point x="68" y="21"/>
      <point x="20" y="21" type="curve"/>
      <point x="20" y="0" type="line"/>
      <point x="51" y="1"/>
      <point x="115" y="4"/>
      <point x="181" y="4" type="curve" smooth="yes"/>
      <point x="243" y="4"/>
      <point x="309" y="1"/>
      <point x="342" y="0" type="curve"/>
      <point x="342" y="21" type="line"/>
      <point x="294" y="21"/>
      <point x="266" y="36"/>
      <point x="266" y="93" type="curve" smooth="yes"/>
      <point x="266" y="498" type="line"/>
      <point x="357" y="498" type="line"/>
      <point x="357" y="518" type="line"/>
      <point x="266" y="518" type="line"/>
      <point x="266" y="549" type="line" smooth="yes"/>
      <point x="266" y="652"/>
      <point x="269" y="695"/>
      <point x="294" y="726" type="curve" smooth="yes"/>
      <point x="314" y="751"/>
      <point x="334" y="762"/>
      <point x="372" y="762" type="curve" smooth="yes"/>
      <point x="391" y="762"/>
      <point x="403" y="754"/>
      <point x="409" y="747" type="curve" smooth="yes"/>
      <point x="418" y="737"/>
      <point x="423" y="723"/>
      <point x="423" y="694" type="curve" smooth="yes"/>
      <point x="423" y="49" type="line" smooth="yes"/>
      <point x="423" y="30"/>
      <point x="422" y="12"/>
      <point x="416" y="-6" type="curve"/>
      <point x="430" y="-16" type="line"/>
      <point x="459" y="11"/>
      <point x="537" y="25"/>
      <point x="603" y="-2" type="curve"/>
    </contour>
    <contour>
      <point x="755" y="533" type="curve" smooth="yes"/>
      <point x="687" y="533"/>
      <point x="634" y="509"/>
      <point x="603" y="458" type="curve"/>
      <point x="603" y="409" type="line" smooth="yes"/>
      <point x="603" y="451"/>
      <point x="638" y="481"/>
      <point x="675" y="481" type="curve" smooth="yes"/>
      <point x="712" y="481"/>
      <point x="742" y="436"/>
      <point x="742" y="259" type="curve" smooth="yes"/>
      <point x="742" y="90"/>
      <point x="712" y="6"/>
      <point x="650" y="6" type="curve" smooth="yes"/>
      <point x="631" y="6"/>
      <point x="608" y="12"/>
      <point x="591" y="26" type="curve"/>
      <point x="580" y="10" type="line"/>
      <point x="614" y="-12"/>
      <point x="650" y="-14"/>
      <point x="696" y="-14" type="curve" smooth="yes"/>
      <point x="821" y="-14"/>
      <point x="929" y="55"/>
      <point x="929" y="282" type="curve" smooth="yes"/>
      <point x="929" y="452"/>
      <point x="854" y="533"/>
    </contour>
  </outline>
</glyph>
<glyph name="f_f_i" format="1">
  <advance width="1033"/>
  <outline>
    <contour>
      <point x="750" y="782" type="curve" smooth="yes"/>
      <point x="658" y="782"/>
      <point x="572" y="761"/>
      <point x="517" y="713" type="curve" smooth="yes"/>
      <point x="462" y="665"/>
      <point x="433" y="600"/>
      <point x="433" y="518" type="curve"/>
      <point x="363" y="518" type="line"/>
      <point x="363" y="498" type="line"/>
      <point x="433" y="498" type="line"/>
      <point x="433" y="93" type="line" smooth="yes"/>
      <point x="433" y="37"/>
      <point x="415" y="21"/>
      <point x="367" y="21" type="curve"/>
      <point x="367" y="0" type="line"/>
      <point x="398" y="1"/>
      <point x="462" y="4"/>
      <point x="528" y="4" type="curve" smooth="yes"/>
      <point x="590" y="4"/>
      <point x="656" y="1"/>
      <point x="689" y="0" type="curve"/>
      <point x="689" y="21" type="line"/>
      <point x="641" y="21"/>
      <point x="613" y="36"/>
      <point x="613" y="93" type="curve" smooth="yes"/>
      <point x="613" y="498" type="line"/>
      <point x="704" y="498" type="line" smooth="yes"/>
      <point x="754" y="498"/>
      <point x="770" y="470"/>
      <point x="770" y="410" type="curve" smooth="yes"/>
      <point x="770" y="93" type="line" smooth="yes"/>
      <point x="770" y="37"/>
      <point x="755" y="21"/>
      <point x="714" y="21" type="curve"/>
      <point x="714" y="0" type="line"/>
      <point x="743" y="1"/>
      <point x="807" y="4"/>
      <point x="865" y="4" type="curve" smooth="yes"/>
      <point x="923" y="4"/>
      <point x="987" y="1"/>
      <point x="1016" y="0" type="curve"/>
      <point x="1016" y="21" type="line"/>
      <point x="968" y="21"/>
      <point x="950" y="37"/>
      <point x="950" y="93" type="curve" smooth="yes"/>
      <point x="950" y="530" type="line"/>
      <point x="882" y="520"/>
      <point x="823" y="518"/>
      <point x="704" y="518" type="curve" smooth="yes"/>
      <point x="613" y="518" type="line"/>
      <point x="613" y="631"/>
      <point x="618" y="682"/>
      <point x="666" y="727" type="curve" smooth="yes"/>
      <point x="684" y="743"/>
      <point x="716" y="762"/>
      <point x="759" y="762" type="curve" smooth="yes"/>
      <point x="784" y="762"/>
      <point x="808" y="756"/>
      <point x="818" y="751" type="curve"/>
      <point x="762" y="738"/>
      <point x="730" y="707"/>
      <point x="730" y="664" type="curve" smooth="yes"/>
      <point x="730" y="611"/>
      <point x="769" y="581"/>
      <point x="844" y="581" type="curve" smooth="yes"/>
      <point x="922" y="581"/>
      <point x="958" y="611"/>
      <point x="958" y="666" type="curve" smooth="yes"/>
      <point x="958" y="699"/>
      <point x="938" y="727"/>
      <point x="915" y="741" type="curve" smooth="yes"/>
      <point x="877" y="764"/>
      <point x="833" y="782"/>
    </contour>
    <contour>
      <point x="353" y="752" type="curve" smooth="yes"/>
      <point x="277" y="752"/>
      <point x="208" y="734"/>
      <point x="163" y="692" type="curve"/>
      <point x="114" y="650"/>
      <point x="86" y="587"/>
      <point x="86" y="518" type="curve"/>
      <point x="16" y="518" type="line"/>
      <point x="16" y="498" type="line"/>
      <point x="86" y="498" type="line"/>
      <point x="86" y="93" type="line" smooth="yes"/>
      <point x="86" y="37"/>
      <point x="68" y="21"/>
      <point x="20" y="21" type="curve"/>
      <point x="20" y="0" type="line"/>
      <point x="51" y="1"/>
      <point x="120" y="4"/>
      <point x="182" y="4" type="curve" smooth="yes"/>
      <point x="236" y="4"/>
      <point x="293" y="1"/>
      <point x="322" y="0" type="curve"/>
      <point x="322" y="21" type="line"/>
      <point x="281" y="21"/>
      <point x="266" y="37"/>
      <point x="266" y="93" type="curve" smooth="yes"/>
      <point x="266" y="498" type="line"/>
      <point x="387" y="498" type="line"/>
      <point x="387" y="518" type="line"/>
      <point x="266" y="518" type="line"/>
      <point x="266" y="594" type="line" smooth="yes"/>
      <point x="266" y="690"/>
      <point x="300" y="728"/>
      <point x="371" y="728" type="curve" smooth="yes"/>
      <point x="444" y="728"/>
      <point x="489" y="696"/>
      <point x="515" y="669" type="curve"/>
      <point x="529" y="686" type="line"/>
      <point x="486" y="723"/>
      <point x="438" y="752"/>
    </contour>
  </outline>
</glyph>
<glyph name="f_f_j.liga" format="1">
  <advance width="1012"/>
  <outline>
    <contour>
      <point x="353" y="752" type="curve" smooth="yes"/>
      <point x="277" y="752"/>
      <point x="209" y="733"/>
      <point x="163" y="692" type="curve" smooth="yes"/>
      <point x="115" y="649"/>
      <point x="86" y="587"/>
      <point x="86" y="518" type="curve"/>
      <point x="16" y="518" type="line"/>
      <point x="16" y="498" type="line"/>
      <point x="86" y="498" type="line"/>
      <point x="86" y="93" type="line" smooth="yes"/>
      <point x="86" y="37"/>
      <point x="68" y="21"/>
      <point x="20" y="21" type="curve"/>
      <point x="20" y="0" type="line"/>
      <point x="51" y="1"/>
      <point x="120" y="4"/>
      <point x="182" y="4" type="curve" smooth="yes"/>
      <point x="240" y="4"/>
      <point x="303" y="1"/>
      <point x="332" y="0" type="curve"/>
      <point x="332" y="21" type="line"/>
      <point x="291" y="21"/>
      <point x="276" y="37"/>
      <point x="276" y="93" type="curve" smooth="yes"/>
      <point x="276" y="498" type="line"/>
      <point x="387" y="498" type="line"/>
      <point x="387" y="518" type="line"/>
      <point x="276" y="518" type="line"/>
      <point x="276" y="594" type="line" smooth="yes"/>
      <point x="276" y="690"/>
      <point x="307" y="728"/>
      <point x="371" y="728" type="curve" smooth="yes"/>
      <point x="444" y="728"/>
      <point x="489" y="696"/>
      <point x="515" y="669" type="curve"/>
      <point x="529" y="686" type="line"/>
      <point x="486" y="723"/>
      <point x="438" y="752"/>
    </contour>
    <component base="f_j.liga" xOffset="346"/>
  </outline>
</glyph>
<glyph name="f_f_k.liga" format="1">
  <advance width="1305"/>
  <outline>
    <contour>
      <point x="950" y="784" type="line"/>
      <point x="915" y="781"/>
      <point x="871" y="777"/>
      <point x="840" y="777" type="curve" smooth="yes"/>
      <point x="786" y="777"/>
      <point x="740" y="782"/>
      <point x="696" y="782" type="curve" smooth="yes"/>
      <point x="633" y="782"/>
      <point x="563" y="766"/>
      <point x="511" y="722" type="curve" smooth="yes"/>
      <point x="463" y="681"/>
      <point x="433" y="619"/>
      <point x="433" y="518" type="curve"/>
      <point x="363" y="518" type="line"/>
      <point x="363" y="498" type="line"/>
      <point x="433" y="498" type="line"/>
      <point x="433" y="93" type="line" smooth="yes"/>
      <point x="433" y="37"/>
      <point x="415" y="21"/>
      <point x="367" y="21" type="curve"/>
      <point x="367" y="0" type="line"/>
      <point x="398" y="1"/>
      <point x="462" y="4"/>
      <point x="528" y="4" type="curve" smooth="yes"/>
      <point x="590" y="4"/>
      <point x="656" y="1"/>
      <point x="689" y="0" type="curve"/>
      <point x="689" y="21" type="line"/>
      <point x="641" y="21"/>
      <point x="613" y="36"/>
      <point x="613" y="93" type="curve" smooth="yes"/>
      <point x="613" y="498" type="line"/>
      <point x="704" y="498" type="line"/>
      <point x="704" y="518" type="line"/>
      <point x="613" y="518" type="line"/>
      <point x="613" y="549" type="line" smooth="yes"/>
      <point x="613" y="651"/>
      <point x="616" y="695"/>
      <point x="641" y="726" type="curve" smooth="yes"/>
      <point x="661" y="751"/>
      <point x="681" y="762"/>
      <point x="719" y="762" type="curve" smooth="yes"/>
      <point x="738" y="762"/>
      <point x="750" y="754"/>
      <point x="756" y="747" type="curve" smooth="yes"/>
      <point x="765" y="737"/>
      <point x="770" y="723"/>
      <point x="770" y="694" type="curve" smooth="yes"/>
      <point x="770" y="93" type="line" smooth="yes"/>
      <point x="770" y="37"/>
      <point x="755" y="21"/>
      <point x="714" y="21" type="curve"/>
      <point x="714" y="0" type="line"/>
      <point x="743" y="1"/>
      <point x="807" y="4"/>
      <point x="865" y="4" type="curve" smooth="yes"/>
      <point x="923" y="4"/>
      <point x="987" y="1"/>
      <point x="1016" y="0" type="curve"/>
      <point x="1016" y="21" type="line"/>
      <point x="968" y="21"/>
      <point x="950" y="37"/>
      <point x="950" y="93" type="curve" smooth="yes"/>
    </contour>
    <contour>
      <point x="353" y="752" type="curve" smooth="yes"/>
      <point x="277" y="752"/>
      <point x="208" y="734"/>
      <point x="163" y="692" type="curve"/>
      <point x="114" y="650"/>
      <point x="86" y="587"/>
      <point x="86" y="518" type="curve"/>
      <point x="16" y="518" type="line"/>
      <point x="16" y="498" type="line"/>
      <point x="86" y="498" type="line"/>
      <point x="86" y="93" type="line" smooth="yes"/>
      <point x="86" y="37"/>
      <point x="68" y="21"/>
      <point x="20" y="21" type="curve"/>
      <point x="20" y="0" type="line"/>
      <point x="51" y="1"/>
      <point x="120" y="4"/>
      <point x="182" y="4" type="curve" smooth="yes"/>
      <point x="240" y="4"/>
      <point x="303" y="1"/>
      <point x="332" y="0" type="curve"/>
      <point x="332" y="21" type="line"/>
      <point x="291" y="21"/>
      <point x="276" y="37"/>
      <point x="276" y="93" type="curve" smooth="yes"/>
      <point x="276" y="498" type="line"/>
      <point x="387" y="498" type="line"/>
      <point x="387" y="518" type="line"/>
      <point x="276" y="518" type="line"/>
      <point x="276" y="594" type="line" smooth="yes"/>
      <point x="276" y="690"/>
      <point x="307" y="728"/>
      <point x="371" y="728" type="curve" smooth="yes"/>
      <point x="444" y="728"/>
      <point x="489" y="696"/>
      <point x="515" y="669" type="curve"/>
      <point x="529" y="686" type="line"/>
      <point x="486" y="723"/>
      <point x="438" y="752"/>
    </contour>
    <contour>
      <point x="1282" y="519" type="line"/>
      <point x="1256" y="517"/>
      <point x="1186" y="516"/>
      <point x="1145" y="516" type="curve" smooth="yes"/>
      <point x="1113" y="516"/>
      <point x="1063" y="517"/>
      <point x="1025" y="519" type="curve"/>
      <point x="1025" y="499" type="line"/>
      <point x="1097" y="493"/>
      <point x="1139" y="433"/>
      <point x="1070" y="369" type="curve" smooth="yes"/>
      <point x="993" y="297" type="line" smooth="yes"/>
      <point x="980" y="284"/>
      <point x="963" y="282"/>
      <point x="945" y="282" type="curve"/>
      <point x="945" y="263" type="line"/>
      <point x="961" y="263"/>
      <point x="973" y="259"/>
      <point x="982" y="241" type="curve" smooth="yes"/>
      <point x="1070" y="55" type="line" smooth="yes"/>
      <point x="1080" y="34"/>
      <point x="1072" y="21"/>
      <point x="1045" y="21" type="curve"/>
      <point x="1045" y="0" type="line"/>
      <point x="1072" y="1"/>
      <point x="1132" y="4"/>
      <point x="1186" y="4" type="curve" smooth="yes"/>
      <point x="1232" y="4"/>
      <point x="1284" y="1"/>
      <point x="1307" y="0" type="curve"/>
      <point x="1307" y="21" type="line"/>
      <point x="1288" y="31"/>
      <point x="1278" y="53"/>
      <point x="1267" y="73" type="curve" smooth="yes"/>
      <point x="1106" y="379" type="line"/>
      <point x="1099" y="366" type="line"/>
      <point x="1134" y="401" type="line" smooth="yes"/>
      <point x="1184" y="451"/>
      <point x="1234" y="486"/>
      <point x="1282" y="499" type="curve"/>
    </contour>
  </outline>
</glyph>
<glyph name="f_idieresis.liga" format="1">
  <advance width="679"/>
  <outline>
    <contour>
      <point x="330" y="782" type="curve" smooth="yes"/>
      <point x="261" y="782"/>
      <point x="198" y="762"/>
      <point x="149" y="715" type="curve" smooth="yes"/>
      <point x="102" y="670"/>
      <point x="86" y="600"/>
      <point x="86" y="518" type="curve"/>
      <point x="16" y="518" type="line"/>
      <point x="16" y="498" type="line"/>
      <point x="86" y="498" type="line"/>
      <point x="86" y="93" type="line" smooth="yes"/>
      <point x="86" y="37"/>
      <point x="68" y="21"/>
      <point x="20" y="21" type="curve"/>
      <point x="20" y="0" type="line"/>
      <point x="51" y="1"/>
      <point x="115" y="4"/>
      <point x="181" y="4" type="curve" smooth="yes"/>
      <point x="243" y="4"/>
      <point x="309" y="1"/>
      <point x="342" y="0" type="curve"/>
      <point x="342" y="21" type="line"/>
      <point x="294" y="21"/>
      <point x="266" y="36"/>
      <point x="266" y="93" type="curve" smooth="yes"/>
      <point x="266" y="498" type="line"/>
      <point x="357" y="498" type="line" smooth="yes"/>
      <point x="407" y="498"/>
      <point x="423" y="470"/>
      <point x="423" y="410" type="curve" smooth="yes"/>
      <point x="423" y="93" type="line" smooth="yes"/>
      <point x="423" y="37"/>
      <point x="408" y="21"/>
      <point x="367" y="21" type="curve"/>
      <point x="367" y="0" type="line"/>
      <point x="396" y="1"/>
      <point x="460" y="4"/>
      <point x="518" y="4" type="curve" smooth="yes"/>
      <point x="576" y="4"/>
      <point x="640" y="1"/>
      <point x="669" y="0" type="curve"/>
      <point x="669" y="21" type="line"/>
      <point x="621" y="21"/>
      <point x="603" y="37"/>
      <point x="603" y="93" type="curve" smooth="yes"/>
      <point x="603" y="530" type="line"/>
      <point x="535" y="520"/>
      <point x="476" y="518"/>
      <point x="357" y="518" type="curve" smooth="yes"/>
      <point x="266" y="518" type="line"/>
      <point x="266" y="553"/>
      <point x="266" y="587"/>
      <point x="266" y="622" type="curve" smooth="yes"/>
      <point x="266" y="730"/>
      <point x="277" y="764"/>
      <point x="346" y="764" type="curve" smooth="yes"/>
      <point x="404" y="764"/>
      <point x="448" y="741"/>
      <point x="454" y="691" type="curve"/>
      <point x="486" y="685" type="line"/>
      <point x="486" y="726"/>
      <point x="464" y="782"/>
    </contour>
    <component base="uni0308" xOffset="323"/>
  </outline>
</glyph>
<glyph name="f_j.liga" format="1">
  <advance width="666"/>
  <outline>
    <contour>
      <point x="328" y="-188" type="line"/>
      <point x="439" y="-188"/>
      <point x="498" y="-167"/>
      <point x="532" y="-138" type="curve" smooth="yes"/>
      <point x="584" y="-93"/>
      <point x="603" y="-38"/>
      <point x="603" y="80" type="curve" smooth="yes"/>
      <point x="603" y="530" type="line"/>
      <point x="535" y="520"/>
      <point x="476" y="518"/>
      <point x="357" y="518" type="curve" smooth="yes"/>
      <point x="266" y="518" type="line"/>
      <point x="266" y="615"/>
      <point x="274" y="656"/>
      <point x="293" y="690" type="curve" smooth="yes"/>
      <point x="317" y="734"/>
      <point x="354" y="762"/>
      <point x="412" y="762" type="curve" smooth="yes"/>
      <point x="437" y="762"/>
      <point x="461" y="756"/>
      <point x="471" y="751" type="curve"/>
      <point x="415" y="738"/>
      <point x="383" y="707"/>
      <point x="383" y="664" type="curve" smooth="yes"/>
      <point x="383" y="611"/>
      <point x="422" y="581"/>
      <point x="497" y="581" type="curve" smooth="yes"/>
      <point x="575" y="581"/>
      <point x="611" y="611"/>
      <point x="611" y="666" type="curve" smooth="yes"/>
      <point x="611" y="698"/>
      <point x="589" y="728"/>
      <point x="566" y="742" type="curve" smooth="yes"/>
      <point x="528" y="765"/>
      <point x="490" y="782"/>
      <point x="389" y="782" type="curve" smooth="yes"/>
      <point x="311" y="782"/>
      <point x="223" y="763"/>
      <point x="170" y="713" type="curve" smooth="yes"/>
      <point x="117" y="663"/>
      <point x="86" y="600"/>
      <point x="86" y="518" type="curve"/>
      <point x="16" y="518" type="line"/>
      <point x="16" y="498" type="line"/>
      <point x="86" y="498" type="line"/>
      <point x="86" y="93" type="line" smooth="yes"/>
      <point x="86" y="37"/>
      <point x="68" y="21"/>
      <point x="20" y="21" type="curve"/>
      <point x="20" y="0" type="line"/>
      <point x="51" y="1"/>
      <point x="115" y="4"/>
      <point x="181" y="4" type="curve" smooth="yes"/>
      <point x="243" y="4"/>
      <point x="309" y="1"/>
      <point x="342" y="0" type="curve"/>
      <point x="342" y="21" type="line"/>
      <point x="294" y="21"/>
      <point x="266" y="36"/>
      <point x="266" y="93" type="curve" smooth="yes"/>
      <point x="266" y="498" type="line"/>
      <point x="357" y="498" type="line" smooth="yes"/>
      <point x="407" y="498"/>
      <point x="423" y="470"/>
      <point x="423" y="410" type="curve" smooth="yes"/>
      <point x="423" y="-42" type="line" smooth="yes"/>
      <point x="423" y="-134"/>
      <point x="381" y="-168"/>
      <point x="328" y="-168" type="curve"/>
    </contour>
  </outline>
</glyph>
<glyph name="filledbox.case" format="1">
  <advance width="567"/>
  <outline>
    <contour>
      <point x="492" y="564" type="line"/>
      <point x="75" y="564" type="line"/>
      <point x="75" y="148" type="line"/>
      <point x="492" y="148" type="line"/>
    </contour>
  </outline>
</glyph>
<glyph name="hookabovecomb.case" format="1">
  <advance width="374"/>
  <outline>
    <contour>
      <point x="164" y="759" type="line"/>
      <point x="184" y="759" type="line"/>
      <point x="184" y="805" type="line"/>
      <point x="266" y="818"/>
      <point x="339" y="848"/>
      <point x="339" y="899" type="curve" smooth="yes"/>
      <point x="339" y="947"/>
      <point x="274" y="977"/>
      <point x="182" y="977" type="curve" smooth="yes"/>
      <point x="137" y="977"/>
      <point x="103" y="970"/>
      <point x="76" y="954" type="curve" smooth="yes"/>
      <point x="56" y="942"/>
      <point x="35" y="921"/>
      <point x="35" y="888" type="curve" smooth="yes"/>
      <point x="35" y="854"/>
      <point x="58" y="830"/>
      <point x="94" y="830" type="curve" smooth="yes"/>
      <point x="128" y="830"/>
      <point x="155" y="852"/>
      <point x="155" y="887" type="curve" smooth="yes"/>
      <point x="155" y="917"/>
      <point x="137" y="937"/>
      <point x="105" y="946" type="curve"/>
      <point x="110" y="951"/>
      <point x="127" y="957"/>
      <point x="151" y="957" type="curve" smooth="yes"/>
      <point x="193" y="957"/>
      <point x="230" y="938"/>
      <point x="230" y="894" type="curve" smooth="yes"/>
      <point x="230" y="866"/>
      <point x="216" y="838"/>
      <point x="164" y="814" type="curve"/>
    </contour>
    <contour>
      <point x="151" y="708" type="move" name="_right"/>
    </contour>
    <contour>
      <point x="184" y="708" type="move" name="_top"/>
    </contour>
    <contour>
      <point x="182" y="977" type="move" name="top"/>
    </contour>
  </outline>
</glyph>
<glyph name="longs_longs.liga" format="1">
  <advance width="702"/>
  <outline>
    <contour>
      <point x="333" y="742" type="curve" smooth="yes"/>
      <point x="261" y="742"/>
      <point x="202" y="723"/>
      <point x="163" y="692" type="curve" smooth="yes"/>
      <point x="113" y="652"/>
      <point x="86" y="587"/>
      <point x="86" y="518" type="curve"/>
      <point x="16" y="518" type="line"/>
      <point x="16" y="498" type="line"/>
      <point x="86" y="498" type="line"/>
      <point x="86" y="93" type="line" smooth="yes"/>
      <point x="86" y="37"/>
      <point x="68" y="21"/>
      <point x="20" y="21" type="curve"/>
      <point x="20" y="0" type="line"/>
      <point x="51" y="1"/>
      <point x="120" y="4"/>
      <point x="182" y="4" type="curve" smooth="yes"/>
      <point x="236" y="4"/>
      <point x="293" y="1"/>
      <point x="322" y="0" type="curve"/>
      <point x="322" y="21" type="line"/>
      <point x="281" y="21"/>
      <point x="266" y="37"/>
      <point x="266" y="93" type="curve" smooth="yes"/>
      <point x="266" y="604" type="line" smooth="yes"/>
      <point x="266" y="682"/>
      <point x="294" y="717"/>
      <point x="357" y="717" type="curve" smooth="yes"/>
      <point x="412" y="717"/>
      <point x="457" y="683"/>
      <point x="472" y="634" type="curve"/>
      <point x="493" y="644" type="line"/>
      <point x="473" y="708"/>
      <point x="408" y="742"/>
    </contour>
    <component base="longs" xOffset="337"/>
  </outline>
</glyph>
<glyph name="longs_longs_i.liga" format="1">
  <advance width="1011"/>
  <outline>
    <contour>
      <point x="367" y="0" type="line"/>
      <point x="398" y="1"/>
      <point x="462" y="4"/>
      <point x="528" y="4" type="curve" smooth="yes"/>
      <point x="590" y="4"/>
      <point x="656" y="1"/>
      <point x="689" y="0" type="curve"/>
      <point x="689" y="21" type="line"/>
      <point x="641" y="21"/>
      <point x="613" y="36"/>
      <point x="613" y="93" type="curve" smooth="yes"/>
      <point x="613" y="518" type="line" smooth="yes"/>
      <point x="613" y="615"/>
      <point x="621" y="656"/>
      <point x="640" y="690" type="curve" smooth="yes"/>
      <point x="664" y="734"/>
      <point x="701" y="762"/>
      <point x="759" y="762" type="curve" smooth="yes"/>
      <point x="784" y="762"/>
      <point x="808" y="756"/>
      <point x="818" y="751" type="curve"/>
      <point x="762" y="738"/>
      <point x="730" y="707"/>
      <point x="730" y="664" type="curve" smooth="yes"/>
      <point x="730" y="611"/>
      <point x="769" y="581"/>
      <point x="844" y="581" type="curve" smooth="yes"/>
      <point x="922" y="581"/>
      <point x="958" y="611"/>
      <point x="958" y="666" type="curve" smooth="yes"/>
      <point x="958" y="698"/>
      <point x="936" y="728"/>
      <point x="913" y="742" type="curve" smooth="yes"/>
      <point x="875" y="765"/>
      <point x="837" y="782"/>
      <point x="736" y="782" type="curve" smooth="yes"/>
      <point x="658" y="782"/>
      <point x="570" y="763"/>
      <point x="517" y="713" type="curve" smooth="yes"/>
      <point x="464" y="663"/>
      <point x="433" y="600"/>
      <point x="433" y="518" type="curve"/>
      <point x="363" y="518" type="line"/>
      <point x="363" y="498" type="line"/>
      <point x="433" y="498" type="line"/>
      <point x="433" y="93" type="line" smooth="yes"/>
      <point x="433" y="37"/>
      <point x="415" y="21"/>
      <point x="367" y="21" type="curve"/>
    </contour>
    <contour>
      <point x="20" y="0" type="line"/>
      <point x="51" y="1"/>
      <point x="120" y="4"/>
      <point x="182" y="4" type="curve" smooth="yes"/>
      <point x="236" y="4"/>
      <point x="293" y="1"/>
      <point x="322" y="0" type="curve"/>
      <point x="322" y="21" type="line"/>
      <point x="281" y="21"/>
      <point x="266" y="37"/>
      <point x="266" y="93" type="curve" smooth="yes"/>
      <point x="266" y="594" type="line" smooth="yes"/>
      <point x="266" y="690"/>
      <point x="300" y="728"/>
      <point x="371" y="728" type="curve" smooth="yes"/>
      <point x="444" y="728"/>
      <point x="489" y="696"/>
      <point x="515" y="669" type="curve"/>
      <point x="529" y="686" type="line"/>
      <point x="486" y="723"/>
      <point x="438" y="752"/>
      <point x="353" y="752" type="curve" smooth="yes"/>
      <point x="277" y="752"/>
      <point x="208" y="734"/>
      <point x="163" y="692" type="curve"/>
      <point x="114" y="650"/>
      <point x="86" y="587"/>
      <point x="86" y="518" type="curve"/>
      <point x="16" y="518" type="line"/>
      <point x="16" y="498" type="line"/>
      <point x="86" y="498" type="line"/>
      <point x="86" y="93" type="line" smooth="yes"/>
      <point x="86" y="37"/>
      <point x="68" y="21"/>
      <point x="20" y="21" type="curve"/>
    </contour>
    <component base="dotlessi" xOffset="681"/>
  </outline>
</glyph>
<glyph name="longs_longs_t.liga" format="1">
  <advance width="1072"/>
  <outline>
    <contour>
      <point x="353" y="752" type="curve" smooth="yes"/>
      <point x="277" y="752"/>
      <point x="208" y="734"/>
      <point x="163" y="692" type="curve"/>
      <point x="114" y="650"/>
      <point x="86" y="587"/>
      <point x="86" y="518" type="curve"/>
      <point x="16" y="518" type="line"/>
      <point x="16" y="498" type="line"/>
      <point x="86" y="498" type="line"/>
      <point x="86" y="93" type="line" smooth="yes"/>
      <point x="86" y="37"/>
      <point x="68" y="21"/>
      <point x="20" y="21" type="curve"/>
      <point x="20" y="0" type="line"/>
      <point x="51" y="1"/>
      <point x="120" y="4"/>
      <point x="182" y="4" type="curve" smooth="yes"/>
      <point x="236" y="4"/>
      <point x="293" y="1"/>
      <point x="322" y="0" type="curve"/>
      <point x="322" y="21" type="line"/>
      <point x="281" y="21"/>
      <point x="266" y="37"/>
      <point x="266" y="93" type="curve" smooth="yes"/>
      <point x="266" y="594" type="line" smooth="yes"/>
      <point x="266" y="690"/>
      <point x="300" y="728"/>
      <point x="371" y="728" type="curve" smooth="yes"/>
      <point x="444" y="728"/>
      <point x="489" y="696"/>
      <point x="515" y="669" type="curve"/>
      <point x="529" y="686" type="line"/>
      <point x="486" y="723"/>
      <point x="438" y="752"/>
    </contour>
    <component base="longs_t.liga" xOffset="347"/>
  </outline>
</glyph>
<glyph name="strokelongoverlaycomb.case" format="1">
  <advance width="829"/>
  <outline>
    <contour>
      <point x="801" y="533" type="line"/>
      <point x="28" y="533" type="line"/>
      <point x="28" y="513" type="line"/>
      <point x="801" y="513" type="line"/>
    </contour>
    <contour>
      <point x="415" y="519" type="move" name="_center"/>
    </contour>
  </outline>
</glyph>
<glyph name="uhorn.smcp" format="1">
  <advance width="671"/>
  <outline>
    <contour>
      <point x="363" y="-14" type="curve" smooth="yes"/>
      <point x="446" y="-14"/>
      <point x="513" y="19"/>
      <point x="546" y="69" type="curve" smooth="yes"/>
      <point x="576" y="118"/>
      <point x="587" y="182"/>
      <point x="587" y="271" type="curve" smooth="yes"/>
      <point x="587" y="590" type="line"/>
      <point x="579" y="585" type="line"/>
      <point x="612" y="587"/>
      <point x="646" y="596"/>
      <point x="680" y="613" type="curve" smooth="yes"/>
      <point x="716" y="631"/>
      <point x="742" y="660"/>
      <point x="742" y="701" type="curve" smooth="yes"/>
      <point x="742" y="751"/>
      <point x="704" y="782"/>
      <point x="662" y="782" type="curve" smooth="yes"/>
      <point x="621" y="782"/>
      <point x="585" y="753"/>
      <point x="585" y="706" type="curve" smooth="yes"/>
      <point x="585" y="662"/>
      <point x="619" y="632"/>
      <point x="653" y="617" type="curve"/>
      <point x="656" y="625" type="line"/>
      <point x="624" y="607"/>
      <point x="591" y="604"/>
      <point x="540" y="604" type="curve" smooth="yes"/>
      <point x="510" y="604"/>
      <point x="497" y="606"/>
      <point x="467" y="608" type="curve"/>
      <point x="462" y="588" type="line"/>
      <point x="495" y="584"/>
      <point x="531" y="584"/>
      <point x="566" y="584" type="curve"/>
      <point x="564" y="590" type="line"/>
      <point x="564" y="260" type="line" smooth="yes"/>
      <point x="564" y="129"/>
      <point x="531" y="31"/>
      <point x="412" y="31" type="curve" smooth="yes"/>
      <point x="288" y="31"/>
      <point x="274" y="130"/>
      <point x="274" y="251" type="curve" smooth="yes"/>
      <point x="274" y="502" type="line" smooth="yes"/>
      <point x="274" y="575"/>
      <point x="284" y="585"/>
      <point x="345" y="588" type="curve"/>
      <point x="345" y="608" type="line"/>
      <point x="306" y="606"/>
      <point x="240" y="605"/>
      <point x="178" y="605" type="curve" smooth="yes"/>
      <point x="110" y="605"/>
      <point x="46" y="606"/>
      <point x="10" y="608" type="curve"/>
      <point x="10" y="588" type="line"/>
      <point x="70" y="585"/>
      <point x="81" y="575"/>
      <point x="81" y="502" type="curve" smooth="yes"/>
      <point x="81" y="268" type="line" smooth="yes"/>
      <point x="81" y="138"/>
      <point x="99" y="82"/>
      <point x="175" y="30" type="curve" smooth="yes"/>
      <point x="225" y="-2"/>
      <point x="291" y="-14"/>
    </contour>
    <contour>
      <point x="364" y="0" type="move" name="bottom"/>
    </contour>
    <contour>
      <point x="455" y="0" type="move" name="ogonek"/>
    </contour>
    <contour>
      <point x="348" y="608" type="move" name="top"/>
    </contour>
  </outline>
</glyph>
<glyph name="uni01E5.smcp" format="1">
  <advance width="728"/>
  <outline>
    <contour>
      <point x="413" y="622" type="curve" smooth="yes"/>
      <point x="191" y="622"/>
      <point x="35" y="495"/>
      <point x="35" y="292" type="curve" smooth="yes"/>
      <point x="35" y="99"/>
      <point x="172" y="-14"/>
      <point x="402" y="-14" type="curve" smooth="yes"/>
      <point x="481" y="-14"/>
      <point x="546" y="14"/>
      <point x="571" y="27" type="curve" smooth="yes"/>
      <point x="592" y="38"/>
      <point x="609" y="46"/>
      <point x="624" y="46" type="curve" smooth="yes"/>
      <point x="641" y="46"/>
      <point x="647" y="20"/>
      <point x="649" y="0" type="curve"/>
      <point x="669" y="0" type="line"/>
      <point x="669" y="198" type="line" smooth="yes"/>
      <point x="669" y="272"/>
      <point x="675" y="281"/>
      <point x="710" y="284" type="curve"/>
      <point x="710" y="304" type="line"/>
      <point x="678" y="302"/>
      <point x="626" y="301"/>
      <point x="566" y="301" type="curve" smooth="yes"/>
      <point x="509" y="301"/>
      <point x="433" y="302"/>
      <point x="385" y="304" type="curve"/>
      <point x="385" y="284" type="line"/>
      <point x="461" y="281"/>
      <point x="476" y="269"/>
      <point x="476" y="188" type="curve" smooth="yes"/>
      <point x="476" y="70" type="line" smooth="yes"/>
      <point x="476" y="50"/>
      <point x="471" y="35"/>
      <point x="462" y="24" type="curve" smooth="yes"/>
      <point x="452" y="13"/>
      <point x="437" y="6"/>
      <point x="418" y="6" type="curve" smooth="yes"/>
      <point x="299" y="6"/>
      <point x="235" y="95"/>
      <point x="235" y="303" type="curve" smooth="yes"/>
      <point x="235" y="476"/>
      <point x="322" y="590"/>
      <point x="461" y="590" type="curve" smooth="yes"/>
      <point x="520" y="590"/>
      <point x="556" y="559"/>
      <point x="588" y="526" type="curve" smooth="yes"/>
      <point x="615" y="494"/>
      <point x="629" y="452"/>
      <point x="638" y="408" type="curve"/>
      <point x="661" y="408" type="line"/>
      <point x="661" y="509"/>
      <point x="662" y="565"/>
      <point x="665" y="608" type="curve"/>
      <point x="642" y="608" type="line"/>
      <point x="636" y="547"/>
      <point x="623" y="536"/>
      <point x="597" y="557" type="curve" smooth="yes"/>
      <point x="550" y="591"/>
      <point x="506" y="622"/>
    </contour>
    <contour>
      <point x="363" y="158" type="line"/>
      <point x="728" y="158" type="line"/>
      <point x="728" y="178" type="line"/>
      <point x="363" y="178" type="line"/>
    </contour>
    <contour>
      <point x="416" y="0" type="move" name="bottom"/>
    </contour>
    <contour>
      <point x="398" y="608" type="move" name="top"/>
    </contour>
  </outline>
</glyph>
<glyph name="uni0292.smcp" format="1">
  <advance width="607"/>
  <outline>
    <contour>
      <point x="561" y="608" type="line"/>
      <point x="464" y="605"/>
      <point x="348" y="605"/>
      <point x="248" y="605" type="curve" smooth="yes"/>
      <point x="187" y="605"/>
      <point x="101" y="605"/>
      <point x="39" y="608" type="curve"/>
      <point x="44" y="541"/>
      <point x="46" y="474"/>
      <point x="46" y="438" type="curve" smooth="yes"/>
      <point x="46" y="413"/>
      <point x="45" y="385"/>
      <point x="43" y="368" type="curve"/>
      <point x="66" y="368" type="line"/>
      <point x="89" y="538"/>
      <point x="208" y="585"/>
      <point x="290" y="585" type="curve" smooth="yes"/>
      <point x="340" y="585" type="line"/>
      <point x="210" y="340" type="line"/>
      <point x="210" y="320" type="line"/>
      <point x="319" y="299"/>
      <point x="391" y="249"/>
      <point x="391" y="156" type="curve" smooth="yes"/>
      <point x="391" y="77"/>
      <point x="339" y="16"/>
      <point x="247" y="16" type="curve" smooth="yes"/>
      <point x="116" y="16"/>
      <point x="64" y="138"/>
      <point x="56" y="283" type="curve"/>
      <point x="33" y="283" type="line"/>
      <point x="33" y="112"/>
      <point x="32" y="44"/>
      <point x="29" y="-7" type="curve"/>
      <point x="52" y="-7" type="line"/>
      <point x="56" y="22"/>
      <point x="61" y="37"/>
      <point x="75" y="37" type="curve" smooth="yes"/>
      <point x="85" y="37"/>
      <point x="100" y="28"/>
      <point x="108" y="23" type="curve" smooth="yes"/>
      <point x="142" y="3"/>
      <point x="200" y="-14"/>
      <point x="282" y="-14" type="curve" smooth="yes"/>
      <point x="469" y="-14"/>
      <point x="576" y="74"/>
      <point x="576" y="170" type="curve" smooth="yes"/>
      <point x="576" y="251"/>
      <point x="500" y="302"/>
      <point x="373" y="338" type="curve"/>
      <point x="404" y="281" type="line"/>
      <point x="561" y="588" type="line"/>
    </contour>
    <contour>
      <point x="304" y="0" type="move" name="bottom"/>
    </contour>
    <contour>
      <point x="304" y="609" type="move" name="top"/>
    </contour>
  </outline>
</glyph>
<glyph name="uni0302.case" format="1">
  <advance width="422"/>
  <outline>
    <contour>
      <point x="220" y="956" type="curve"/>
      <point x="202" y="956" type="line"/>
      <point x="153" y="892"/>
      <point x="72" y="825"/>
      <point x="-15" y="784" type="curve"/>
      <point x="-10" y="769" type="line"/>
      <point x="66" y="783"/>
      <point x="147" y="808"/>
      <point x="191" y="830" type="curve"/>
      <point x="243" y="808"/>
      <point x="340" y="783"/>
      <point x="432" y="769" type="curve"/>
      <point x="437" y="784" type="line"/>
      <point x="349" y="826"/>
      <point x="267" y="893"/>
    </contour>
    <contour>
      <point x="211" y="708" type="move" name="_top"/>
    </contour>
    <contour>
      <point x="379" y="878" type="move" name="right"/>
    </contour>
    <contour>
      <point x="211" y="928" type="move" name="top"/>
    </contour>
  </outline>
</glyph>
<glyph name="uni0304.case" format="1">
  <advance width="402"/>
  <outline>
    <contour>
      <point x="417" y="844" type="line"/>
      <point x="-15" y="844" type="line"/>
      <point x="-15" y="819" type="line"/>
      <point x="417" y="819" type="line"/>
    </contour>
    <contour>
      <point x="201" y="819" type="move" name="_centre"/>
    </contour>
    <contour>
      <point x="201" y="708" type="move" name="_top"/>
    </contour>
    <contour>
      <point x="201" y="928" type="move" name="top"/>
    </contour>
  </outline>
</glyph>
<glyph name="uni0307.smcp" format="1">
  <advance width="198"/>
  <outline>
    <contour>
      <point x="97" y="862" type="curve" smooth="yes"/>
      <point x="33" y="862"/>
      <point x="-2" y="833"/>
      <point x="-2" y="776" type="curve" smooth="yes"/>
      <point x="-2" y="719"/>
      <point x="33" y="690"/>
      <point x="97" y="690" type="curve" smooth="yes"/>
      <point x="160" y="690"/>
      <point x="196" y="719"/>
      <point x="196" y="776" type="curve" smooth="yes"/>
      <point x="196" y="833"/>
      <point x="160" y="862"/>
    </contour>
    <contour>
      <point x="99" y="608" type="move" name="_top"/>
    </contour>
    <contour>
      <point x="99" y="828" type="move" name="top"/>
    </contour>
  </outline>
</glyph>
<glyph name="uni0308.case" format="1">
  <advance width="378"/>
  <outline>
    <contour>
      <point x="318" y="936" type="curve" smooth="yes"/>
      <point x="270" y="936"/>
      <point x="231" y="895"/>
      <point x="231" y="849" type="curve" smooth="yes"/>
      <point x="231" y="801"/>
      <point x="270" y="762"/>
      <point x="318" y="762" type="curve" smooth="yes"/>
      <point x="364" y="762"/>
      <point x="405" y="801"/>
      <point x="405" y="849" type="curve" smooth="yes"/>
      <point x="405" y="895"/>
      <point x="364" y="936"/>
    </contour>
    <contour>
      <point x="60" y="936" type="curve" smooth="yes"/>
      <point x="12" y="936"/>
      <point x="-27" y="895"/>
      <point x="-27" y="849" type="curve" smooth="yes"/>
      <point x="-27" y="801"/>
      <point x="12" y="762"/>
      <point x="60" y="762" type="curve" smooth="yes"/>
      <point x="106" y="762"/>
      <point x="147" y="801"/>
      <point x="147" y="849" type="curve" smooth="yes"/>
      <point x="147" y="895"/>
      <point x="106" y="936"/>
    </contour>
    <contour>
      <point x="189" y="708" type="move" name="_top"/>
    </contour>
    <contour>
      <point x="189" y="928" type="move" name="top"/>
    </contour>
  </outline>
</glyph>
<glyph name="uni0308.smcp" format="1">
  <advance width="378"/>
  <outline>
    <contour>
      <point x="318" y="863" type="curve" smooth="yes"/>
      <point x="270" y="863"/>
      <point x="231" y="822"/>
      <point x="231" y="776" type="curve" smooth="yes"/>
      <point x="231" y="728"/>
      <point x="270" y="689"/>
      <point x="318" y="689" type="curve" smooth="yes"/>
      <point x="364" y="689"/>
      <point x="405" y="728"/>
      <point x="405" y="776" type="curve" smooth="yes"/>
      <point x="405" y="822"/>
      <point x="364" y="863"/>
    </contour>
    <contour>
      <point x="60" y="863" type="curve" smooth="yes"/>
      <point x="12" y="863"/>
      <point x="-27" y="822"/>
      <point x="-27" y="776" type="curve" smooth="yes"/>
      <point x="-27" y="728"/>
      <point x="12" y="689"/>
      <point x="60" y="689" type="curve" smooth="yes"/>
      <point x="106" y="689"/>
      <point x="147" y="728"/>
      <point x="147" y="776" type="curve" smooth="yes"/>
      <point x="147" y="822"/>
      <point x="106" y="863"/>
    </contour>
    <contour>
      <point x="189" y="608" type="move" name="_top"/>
    </contour>
    <contour>
      <point x="189" y="828" type="move" name="top"/>
    </contour>
  </outline>
</glyph>
<glyph name="uni0338.smcp" format="1">
  <advance width="785"/>
  <outline>
    <contour>
      <point x="550" y="555" type="line"/>
      <point x="230" y="70" type="line"/>
      <point x="250" y="54" type="line"/>
      <point x="567" y="538" type="line"/>
    </contour>
    <contour>
      <point x="217" y="66" type="line"/>
      <point x="123" y="-58" type="line"/>
      <point x="141" y="-72" type="line"/>
      <point x="233" y="48" type="line"/>
    </contour>
    <contour>
      <point x="641" y="680" type="line"/>
      <point x="555" y="555" type="line"/>
      <point x="572" y="538" type="line"/>
      <point x="660" y="667" type="line"/>
    </contour>
    <contour>
      <point x="399" y="304" type="move" name="_center"/>
    </contour>
  </outline>
</glyph>
<glyph name="uni0463.smcp" format="1">
  <advance width="653"/>
  <outline>
    <contour>
      <point x="0" y="461" type="line"/>
      <point x="415" y="461" type="line"/>
      <point x="415" y="481" type="line"/>
      <point x="0" y="481" type="line"/>
    </contour>
    <component base="uni044C.smcp"/>
  </outline>
</glyph>
<glyph name="uni0493.smcp" format="1">
  <advance width="562"/>
  <outline>
    <contour>
      <point x="0" y="296" type="line"/>
      <point x="405" y="296" type="line"/>
      <point x="405" y="316" type="line"/>
      <point x="0" y="316" type="line"/>
    </contour>
    <component base="uni0433.smcp"/>
  </outline>
</glyph>
<glyph name="uni049B.smcp" format="1">
  <advance width="739"/>
  <outline>
    <contour>
      <point x="718" y="-185" type="curve"/>
      <point x="741" y="-185" type="line"/>
      <point x="739" y="-168"/>
      <point x="738" y="-146"/>
      <point x="738" y="-118" type="curve" smooth="yes"/>
      <point x="738" y="-91"/>
      <point x="740" y="-35"/>
      <point x="745" y="20" type="curve"/>
      <point x="735" y="20" type="line" smooth="yes"/>
      <point x="676" y="20"/>
      <point x="658" y="37"/>
      <point x="640" y="105" type="curve" smooth="yes"/>
      <point x="619" y="187" type="line" smooth="yes"/>
      <point x="585" y="320"/>
      <point x="432" y="331"/>
      <point x="325" y="331" type="curve" smooth="yes"/>
      <point x="291" y="331"/>
      <point x="258" y="331"/>
      <point x="224" y="331" type="curve"/>
      <point x="226" y="314" type="line"/>
      <point x="302" y="314" type="line" smooth="yes"/>
      <point x="380" y="314"/>
      <point x="396" y="266"/>
      <point x="406" y="218" type="curve" smooth="yes"/>
      <point x="431" y="96" type="line" smooth="yes"/>
      <point x="445" y="28"/>
      <point x="497" y="10"/>
      <point x="567" y="-5" type="curve" smooth="yes"/>
      <point x="667" y="-26"/>
      <point x="700" y="-74"/>
    </contour>
    <contour>
      <point x="279" y="314" type="line"/>
      <point x="374" y="316" type="line"/>
      <point x="574" y="500" type="line" smooth="yes"/>
      <point x="623" y="546"/>
      <point x="674" y="577"/>
      <point x="719" y="589" type="curve"/>
      <point x="719" y="608" type="line"/>
      <point x="692" y="606"/>
      <point x="665" y="605"/>
      <point x="606" y="605" type="curve" smooth="yes"/>
      <point x="547" y="605"/>
      <point x="496" y="606"/>
      <point x="440" y="608" type="curve"/>
      <point x="440" y="589" type="line"/>
      <point x="507" y="586"/>
      <point x="556" y="519"/>
      <point x="474" y="433" type="curve" smooth="yes"/>
      <point x="451" y="411" type="line" smooth="yes"/>
      <point x="397" y="359"/>
      <point x="349" y="337"/>
      <point x="279" y="331" type="curve"/>
    </contour>
    <component base="i.smcp"/>
    <contour>
      <point x="370" y="608" type="move" name="top"/>
    </contour>
  </outline>
</glyph>
<glyph name="uni04B1.smcp" format="1">
  <advance width="617"/>
  <outline>
    <contour>
      <point x="570" y="227" type="line"/>
      <point x="77" y="227" type="line"/>
      <point x="77" y="207" type="line"/>
      <point x="570" y="207" type="line"/>
    </contour>
    <component base="uni04AF.smcp"/>
  </outline>
</glyph>
<glyph name="uni04CA.smcp" format="1">
  <advance width="811"/>
  <outline>
    <contour>
      <point x="646" y="-183" type="curve"/>
      <point x="668" y="-194" type="line"/>
      <point x="695" y="-143"/>
      <point x="750" y="-57"/>
      <point x="796" y="0" type="curve"/>
      <point x="796" y="20" type="line"/>
      <point x="782" y="20" type="line" smooth="yes"/>
      <point x="722" y="20"/>
      <point x="711" y="33"/>
      <point x="711" y="106" type="curve"/>
      <point x="551" y="3" type="line"/>
      <point x="660" y="3"/>
      <point x="723" y="-25"/>
    </contour>
    <component base="uni043D.smcp"/>
  </outline>
</glyph>
